HIERARCHY
ROOT Hips
{
	OFFSET 0.000000 0.000000 0.000000
	CHANNELS 6 Xposition Yposition Zposition Xrotation Yrotation Zrotation
	JOINT LeftUpLeg_virtual
	{
		OFFSET 0.000000 0.000000 0.000000
		CHANNELS 3 Xrotation Yrotation Zrotation
		JOINT LeftUpLeg
		{
			OFFSET 13.026900 -6.336304 -1.092800
			CHANNELS 3 Xrotation Yrotation Zrotation
			JOINT LeftLeg
			{
				OFFSET 0.524474 -46.096886 9.782700
				CHANNELS 3 Xrotation Yrotation Zrotation
				JOINT LeftFoot
				{
					OFFSET -0.524474 -53.427422 -12.948200
					CHANNELS 3 Xrotation Yrotation Zrotation
					JOINT LeftToeBase
					{
						OFFSET 0.192200 -14.009700 16.364100
						CHANNELS 3 Xrotation Yrotation Zrotation
						JOINT LeftToe_End
						{
							OFFSET -1.784700 -0.561700 9.474800
							CHANNELS 3 Xrotation Yrotation Zrotation
							End Site
							{
								OFFSET 0 0 0
							}
						}
					}
				}
			}
		}
	}
	JOINT RightUpLeg_virtual
	{
		OFFSET 0.000000 0.000000 0.000000
		CHANNELS 3 Xrotation Yrotation Zrotation
		JOINT RightUpLeg
		{
			OFFSET -12.883000 -6.336304 -1.092800
			CHANNELS 3 Xrotation Yrotation Zrotation
			JOINT RightLeg
			{
				OFFSET -0.524587 -46.096825 9.782800
				CHANNELS 3 Xrotation Yrotation Zrotation
				JOINT RightFoot
				{
					OFFSET 0.524587 -53.427383 -12.948300
					CHANNELS 3 Xrotation Yrotation Zrotation
					JOINT RightToeBase
					{
						OFFSET -0.192200 -14.009700 16.364100
						CHANNELS 3 Xrotation Yrotation Zrotation
						JOINT RightToe_End
						{
							OFFSET 1.784700 -0.561700 9.474800
							CHANNELS 3 Xrotation Yrotation Zrotation
							End Site
							{
								OFFSET 0 0 0
							}
						}
					}
				}
			}
		}
	}
	JOINT Spine_virtual
	{
		OFFSET 0.000000 0.000000 0.000000
		CHANNELS 3 Xrotation Yrotation Zrotation
		JOINT Spine
		{
			OFFSET 0.072000 7.257294 -0.789700
			CHANNELS 3 Xrotation Yrotation Zrotation
			JOINT Spine1
			{
				OFFSET 0.000000 12.508769 -0.658067
				CHANNELS 3 Xrotation Yrotation Zrotation
				JOINT Spine1_split
				{
					OFFSET 0.000000 12.508769 -0.658067
					CHANNELS 3 Xrotation Yrotation Zrotation
					JOINT Spine2
					{
						OFFSET 0.000000 12.508769 -0.658067
						CHANNELS 3 Xrotation Yrotation Zrotation
						JOINT Neck_virtual
						{
							OFFSET 0.000000 0.000000 0.000000
							CHANNELS 3 Xrotation Yrotation Zrotation
							JOINT Neck
							{
								OFFSET 0.000000 14.033295 7.520400
								CHANNELS 3 Xrotation Yrotation Zrotation
								JOINT Head
								{
									OFFSET 0.000000 8.198502 5.703100
									CHANNELS 3 Xrotation Yrotation Zrotation
									JOINT HeadTop_End
									{
										OFFSET 0.000000 17.760803 13.332701
										CHANNELS 3 Xrotation Yrotation Zrotation
										End Site
										{
											OFFSET 0 0 0
										}
									}
								}
							}
						}
						JOINT LeftShoulder_virtual
						{
							OFFSET 0.000000 0.000000 0.000000
							CHANNELS 3 Xrotation Yrotation Zrotation
							JOINT LeftShoulder
							{
								OFFSET 6.292450 5.785301 -0.669000
								CHANNELS 3 Xrotation Yrotation Zrotation
								JOINT LeftShoulder_split
								{
									OFFSET 6.292450 5.785301 -0.669000
									CHANNELS 3 Xrotation Yrotation Zrotation
									JOINT LeftArm
									{
										OFFSET 13.907140 -6.093903 1.965100
										CHANNELS 3 Xrotation Yrotation Zrotation
										JOINT LeftForeArm
										{
											OFFSET 34.140198 0.000000 0.000000
											CHANNELS 3 Xrotation Yrotation Zrotation
											JOINT LeftHand
											{
												OFFSET 40.960209 0.000000 0.000000
												CHANNELS 3 Xrotation Yrotation Zrotation
												End Site
												{
													OFFSET 0 0 0
												}
											}
										}
									}
								}
							}
						}
						JOINT RightShoulder_virtual
						{
							OFFSET 0.000000 0.000000 0.000000
							CHANNELS 3 Xrotation Yrotation Zrotation
							JOINT RightShoulder
							{
								OFFSET -6.292450 5.785301 -0.669000
								CHANNELS 3 Xrotation Yrotation Zrotation
								JOINT RightShoulder_split
								{
									OFFSET -6.292450 5.785301 -0.669000
									CHANNELS 3 Xrotation Yrotation Zrotation
									JOINT RightArm
									{
										OFFSET -13.907140 -6.093903 1.965100
										CHANNELS 3 Xrotation Yrotation Zrotation
										JOINT RightForeArm
										{
											OFFSET -34.140198 0.000000 0.000000
											CHANNELS 3 Xrotation Yrotation Zrotation
											JOINT RightHand
											{
												OFFSET -40.960209 0.000000 0.000000
												CHANNELS 3 Xrotation Yrotation Zrotation
												End Site
												{
													OFFSET 0 0 0
												}
											}
										}
									}
								}
							}
						}
					}
				}
			}
		}
	}
}
MOTION
Frames: 6
Frame Time: 0.03333333
4.065797 93.382683 6.546974 0.000000 0.000000 0.000000 5.113971 -37.989218 3.830935 -60.079799 2.491312 19.806410 26.864319 -15.815090 2.066919 11.516005 -5.933207 -19.861591 -4.679447 -0.160663 -0.139341 0.000000 0.000000 0.000000 1.818311 -34.333606 2.968997 -17.603957 -16.183163 -37.312695 26.203664 -5.719804 1.292030 -13.306966 -12.193711 34.820216 1.031966 -1.297263 1.613169 0.000000 0.000000 0.000000 2.923916 -37.476128 2.640653 21.156479 -1.914712 -5.354169 5.575189 -1.951862 1.380395 3.677961 -14.086604 4.996765 0.000000 0.000000 0.000000 6.364270 -0.994753 -0.680010 16.329504 12.098195 14.655574 -32.584951 29.726144 19.891895 0.000000 0.000000 0.000000 7.565454 -1.564008 0.083066 -1.203073 -11.951119 -18.984415 -1.543729 -1.750531 -1.504202 -38.068090 31.156598 -14.415765 3.919542 -17.700592 -5.233580 0.000000 0.000000 0.000000 5.964719 -1.174649 0.104546 -0.184900 -14.889882 23.625047 -13.352832 -5.059490 -0.365345 18.640937 15.316390 33.864966 3.815047 51.512365 9.575810 0.000000 0.000000 0.000000 
1.625421 93.709480 6.703735 0.000000 0.000000 0.000000 5.601516 -34.580223 3.964399 -60.195605 6.333390 20.392932 26.452015 -17.839373 1.425096 15.529523 -8.236348 -19.103691 -6.394414 -0.370238 0.617890 0.000000 0.000000 0.000000 1.874253 -30.421174 3.372680 -13.862108 -14.914227 -32.338815 30.541809 -6.517698 1.466355 -15.184357 -11.732699 30.664370 1.327598 -1.067107 2.336906 0.000000 0.000000 0.000000 1.452738 -34.143521 3.234520 19.398871 -1.589962 -5.641724 5.671340 -1.387593 1.688010 3.681531 -8.473008 4.727020 0.000000 0.000000 0.000000 5.107447 -0.682811 -0.438682 19.040711 11.325663 13.172587 -30.471574 28.143306 19.851318 0.000000 0.000000 0.000000 6.899360 -0.923323 0.239993 -0.679898 -9.254417 -19.206852 -0.503310 -0.693353 -0.391972 -41.058087 30.394922 -13.388989 2.385240 -24.845011 -5.886736 0.000000 0.000000 0.000000 5.530956 -0.690380 0.154947 -1.218511 -11.863702 23.936359 -13.838220 -1.366787 0.425633 16.920329 17.027518 35.141805 4.849754 51.198456 9.137903 0.000000 0.000000 0.000000 
-2.040169 93.936241 7.016949 0.000000 0.000000 0.000000 5.218203 -25.710219 4.693509 -58.816371 11.707231 18.708137 22.538731 -19.687293 -0.026628 22.976007 -11.490834 -17.031285 -8.254969 -0.793456 2.327276 0.000000 0.000000 0.000000 1.688218 -21.800338 4.393346 -7.700937 -12.489880 -25.593024 37.373982 -5.234614 1.189530 -13.008275 -7.821633 30.146310 -10.576006 -0.769163 1.890490 0.000000 0.000000 0.000000 0.368940 -25.538351 4.476812 16.492706 -0.528976 -5.525047 4.754066 0.110351 2.546314 4.121886 -5.551628 3.480391 0.000000 0.000000 0.000000 3.002672 0.753777 0.547326 23.645145 10.220526 10.868609 -23.494707 24.244620 17.324275 0.000000 0.000000 0.000000 5.254083 0.917544 1.165366 -0.035421 -5.272786 -18.492894 0.329014 0.237462 0.513684 -39.480597 26.730488 -13.959711 4.114366 -34.875117 -3.697554 0.000000 0.000000 0.000000 4.211106 1.010416 0.981581 -1.912535 -8.677290 25.048564 -12.772293 0.393351 -0.250380 15.117463 18.170562 34.520418 9.482864 49.355111 5.975371 0.000000 0.000000 0.000000 
-6.029133 94.103210 7.604027 0.000000 0.000000 0.000000 3.908583 -13.601551 5.854292 -55.391871 17.172878 14.579425 16.160002 -20.229936 -1.661977 31.485434 -13.155069 -13.106975 -9.395158 -1.221756 4.016988 0.000000 0.000000 0.000000 1.283107 -9.999198 5.815638 0.540738 -9.079003 -17.994625 42.502215 -2.884940 0.078756 -9.329326 -1.574315 30.640208 -29.918834 -0.221223 1.006885 0.000000 0.000000 0.000000 -0.670235 -13.634792 6.187075 12.899189 1.104610 -4.917440 2.949529 2.300609 3.654253 4.234962 -3.923412 1.886129 0.000000 0.000000 0.000000 0.371803 3.014304 1.969595 28.588211 9.308213 8.152554 -14.133973 18.478937 13.781727 0.000000 0.000000 0.000000 2.872647 3.515628 2.404044 0.442693 -0.805530 -17.047274 1.241824 1.136494 1.377941 -35.443754 19.323377 -15.247224 8.763943 -40.985219 1.560671 0.000000 0.000000 0.000000 2.197832 3.554613 2.224210 -2.267076 -5.894282 26.288666 -10.381080 -0.189293 -1.415969 14.345274 17.626352 31.665836 16.012470 45.334219 1.530618 0.000000 0.000000 0.000000 
-9.848865 94.427612 7.821693 0.000000 0.000000 0.000000 1.796508 -0.534473 7.571279 -49.886493 21.109492 8.136687 8.615395 -19.796019 -2.649040 38.257501 -12.341761 -8.569477 -10.137685 -1.443458 5.027691 0.000000 0.000000 0.000000 -0.186964 2.826028 7.221001 9.450309 -5.727106 -10.422813 43.968438 -1.686905 -1.117001 -5.321649 4.791410 27.714947 -44.922533 0.664317 0.493608 0.000000 0.000000 0.000000 -1.901096 0.016405 8.019533 9.184899 3.090634 -3.778626 0.537428 4.789742 4.635180 1.895502 -3.263119 0.258635 0.000000 0.000000 0.000000 -2.072520 5.605212 3.351132 32.226625 8.687157 4.928668 -5.415572 11.522323 10.531756 0.000000 0.000000 0.000000 0.209440 6.315409 3.520124 0.669144 3.748856 -14.897525 2.104517 2.337318 1.452570 -31.674244 8.047277 -15.044540 12.304074 -39.855168 6.903945 0.000000 0.000000 0.000000 -0.182271 6.397474 3.487014 -2.302843 -3.371234 27.197173 -7.355096 -1.090578 -2.048264 14.794495 15.214328 27.682960 22.399009 39.550395 -2.518411 0.000000 0.000000 0.000000 
-12.978898 94.962990 7.492531 0.000000 0.000000 0.000000 -1.293706 11.292148 9.648328 -43.176525 21.824942 0.486165 1.417933 -19.408355 -2.380700 41.727043 -9.819987 -4.568842 -11.088695 -1.446201 5.265446 0.000000 0.000000 0.000000 -2.497573 13.947497 8.818088 16.262332 -3.488518 -3.927267 41.313871 -2.577958 -1.408121 -0.521053 9.180802 20.919932 -51.242897 1.604817 0.399688 0.000000 0.000000 0.000000 -3.310126 12.439625 9.603707 6.064960 5.055952 -2.351882 -2.121943 7.192798 5.153434 -0.943453 -3.939647 -0.872851 0.000000 0.000000 0.000000 -3.887897 8.132925 4.248335 33.420864 8.804899 1.140878 0.627586 4.696143 7.825688 0.000000 0.000000 0.000000 -2.213872 8.852816 4.161942 0.536770 7.921091 -12.176072 1.797738 4.024350 0.441491 -30.698791 -3.018648 -12.062972 10.520875 -31.819744 9.092240 0.000000 0.000000 0.000000 -2.450926 8.936609 4.337021 -2.079001 -1.011048 27.190886 -4.858882 -0.544356 -2.347811 16.110982 11.651487 23.696322 27.225289 32.959249 -5.081040 0.000000 0.000000 0.000000 
